<svg xmlns="http://www.w3.org/2000/svg" width="24" height="14" viewBox="0 0 24 14"><g><g><path fill="#57b567" d="M23.784 12.213c-.064-.108-.463-.975-2.383-2.757-2.01-1.866-1.74-1.563.68-4.79 1.475-1.964 2.065-3.164 1.88-3.677-.175-.49-1.26-.36-1.26-.36l-3.606.02s-.267-.035-.466.083c-.194.117-.318.387-.318.387s-.572 1.521-1.334 2.814c-1.606 2.729-2.25 2.873-2.512 2.703-.61-.394-.458-1.587-.458-2.433 0-2.644.4-3.747-.781-4.032-.393-.094-.681-.157-1.685-.168C10.254-.01 9.164.008 8.547.31c-.41.201-.727.65-.534.675.239.032.779.146 1.065.536.37.502.357 1.633.357 1.633s.213 3.113-.496 3.5C8.45 6.918 7.784 6.377 6.35 3.9c-.733-1.267-1.288-2.67-1.288-2.67s-.107-.26-.297-.4A1.495 1.495 0 0 0 4.21.606L.78.627S.268.642.079.866c-.168.2-.013.61-.013.61s2.685 6.28 5.724 9.447c2.788 2.903 5.953 2.712 5.953 2.712h1.434s.434-.048.654-.286c.204-.22.197-.63.197-.63s-.029-1.925.865-2.208c.88-.28 2.012 1.86 3.21 2.683.906.623 1.595.486 1.595.486l3.205-.045s1.677-.103.882-1.422z"/></g></g></svg>