<svg xmlns="http://www.w3.org/2000/svg" width="19" height="19" viewBox="0 0 19 19">
  <g>
    <g>
      <g>
        <path fill="#5bb46a" d="M17.13 13.76a3.715 3.715 0 0 1-3.71 3.71H5.396a3.715 3.715 0 0 1-3.71-3.71V5.736a3.715 3.715 0 0 1 3.71-3.71h8.024a3.715 3.715 0 0 1 3.71 3.71zM13.42 1H5.396A4.741 4.741 0 0 0 .66 5.736v8.024a4.741 4.741 0 0 0 4.736 4.736h8.024a4.741 4.741 0 0 0 4.736-4.736V5.736A4.741 4.741 0 0 0 13.42 1z"/>
        <path fill="none" stroke="#5bb46a" stroke-miterlimit="20" stroke-width=".54" d="M17.13 13.76a3.715 3.715 0 0 1-3.71 3.71H5.396a3.715 3.715 0 0 1-3.71-3.71V5.736a3.715 3.715 0 0 1 3.71-3.71h8.024a3.715 3.715 0 0 1 3.71 3.71zM13.42 1H5.396A4.741 4.741 0 0 0 .66 5.736v8.024a4.741 4.741 0 0 0 4.736 4.736h8.024a4.741 4.741 0 0 0 4.736-4.736V5.736A4.741 4.741 0 0 0 13.42 1z"/>
      </g>
      <g>
        <path fill="#5bb46a" d="M9.399 13.492A3.758 3.758 0 0 1 5.646 9.74a3.758 3.758 0 0 1 3.753-3.753 3.758 3.758 0 0 1 3.753 3.753A3.757 3.757 0 0 1 9.4 13.492zm.005-8.532A4.79 4.79 0 0 0 4.62 9.744a4.79 4.79 0 0 0 4.784 4.784 4.79 4.79 0 0 0 4.784-4.784A4.79 4.79 0 0 0 9.404 4.96z"/>
        <path fill="none" stroke="#5bb46a" stroke-miterlimit="20" stroke-width=".54" d="M9.399 13.492A3.758 3.758 0 0 1 5.646 9.74a3.758 3.758 0 0 1 3.753-3.753 3.758 3.758 0 0 1 3.753 3.753A3.757 3.757 0 0 1 9.4 13.492zm.005-8.532A4.79 4.79 0 0 0 4.62 9.744a4.79 4.79 0 0 0 4.784 4.784 4.79 4.79 0 0 0 4.784-4.784A4.79 4.79 0 0 0 9.404 4.96z"/>
      </g>
      <g>
        <path fill="#5bb46a" d="M14.299 5.065a.385.385 0 0 1-.383-.386c0-.214.172-.387.383-.387.21 0 .383.173.383.387a.385.385 0 0 1-.383.386zm.005-1.795c-.78 0-1.414.634-1.414 1.414 0 .78.634 1.413 1.414 1.413.78 0 1.413-.634 1.413-1.413 0-.78-.634-1.414-1.413-1.414z"/>
        <path fill="none" stroke="#5bb46a" stroke-miterlimit="20" stroke-width=".54" d="M14.299 5.065a.385.385 0 0 1-.383-.386c0-.214.172-.387.383-.387.21 0 .383.173.383.387a.385.385 0 0 1-.383.386zm.005-1.795c-.78 0-1.414.634-1.414 1.414 0 .78.634 1.413 1.414 1.413.78 0 1.413-.634 1.413-1.413 0-.78-.634-1.414-1.413-1.414z"/>
      </g>
    </g>
  </g>
</svg>